<?xml version="1.0" encoding="UTF-8"?>
<svg version="1.1" xmlns="http://www.w3.org/2000/svg" width="319" height="319">
<path d="M0 0 C2.39160846 0.36965798 3.65524507 0.58996803 5.24169922 2.47680664 C5.59248535 3.11481201 5.94327148 3.75281738 6.3046875 4.41015625 C6.715979 5.14057129 7.12727051 5.87098633 7.55102539 6.62353516 C7.98793701 7.42839355 8.42484863 8.23325195 8.875 9.0625 C9.84933599 10.80129957 10.82464342 12.53955506 11.80078125 14.27734375 C12.57542725 15.66928955 12.57542725 15.66928955 13.36572266 17.08935547 C16.20067882 22.13840647 19.13615239 27.1285545 22.0625 32.125 C23.26052179 34.17702196 24.4584402 36.22910429 25.65625 38.28125 C30.08777474 45.86385893 34.53677727 53.43601201 39 61 C39.52513184 61.89025879 40.05026367 62.78051758 40.59130859 63.69775391 C42.31027094 66.61135809 44.02998021 69.52451996 45.75 72.4375 C46.28117432 73.33742676 46.81234863 74.23735352 47.35961914 75.16455078 C47.87516357 76.03708496 48.39070801 76.90961914 48.921875 77.80859375 C49.42525391 78.66308105 49.92863281 79.51756836 50.44726562 80.39794922 C51.52329437 82.20114331 52.61702644 83.99384581 53.72460938 85.77783203 C54.27439453 86.66712402 54.82417969 87.55641602 55.390625 88.47265625 C55.89110352 89.2706665 56.39158203 90.06867676 56.90722656 90.89086914 C58 93 58 93 58 96 C45.625 96.495 45.625 96.495 33 97 C36.85716347 104.30399041 40.82185523 111.45754441 45.11254883 118.51831055 C49.54494965 125.84270994 53.77831851 133.28082803 58.03540039 140.70800781 C61.39736957 146.55336957 64.80103062 152.36526497 68.30078125 158.12890625 C68.64961365 158.70439209 68.99844604 159.27987793 69.35784912 159.87280273 C71.03883813 162.64343653 72.72789145 165.40866493 74.42822266 168.16748047 C75.02812012 169.15248535 75.62801758 170.13749023 76.24609375 171.15234375 C76.77904053 172.01851318 77.3119873 172.88468262 77.86108398 173.77709961 C79 176 79 176 79 179 C72.07 179.33 65.14 179.66 58 180 C63.6169488 189.97294991 69.45490146 199.79816178 75.35644531 209.60522461 C80.22546121 217.69902345 85.04104707 225.82183623 89.81298828 233.97314453 C91.52073508 236.88916961 93.23208198 239.80307165 94.94458008 242.71630859 C95.80077776 244.17314168 96.65611391 245.6304815 97.51049805 247.08837891 C100.28190226 251.8099481 103.11835996 256.48601828 106.0390625 261.1171875 C107 263 107 263 107 266 C103.82465848 267.58767076 100.40116616 267.13672755 96.91442871 267.12698364 C96.06883565 267.12854363 95.2232426 267.13010362 94.35202551 267.13171089 C91.50224437 267.13571788 88.65251596 267.13253239 85.80273438 267.12939453 C83.76630115 267.1307487 81.72986818 267.13252873 79.69343567 267.13470459 C74.15020209 267.13927701 68.60698705 267.13749014 63.06375313 267.1343255 C57.27374342 267.13180092 51.48373535 267.13413972 45.69372559 267.13571167 C35.96882847 267.13753308 26.24393894 267.13512781 16.51904297 267.13037109 C5.26167299 267.12492853 -5.99567888 267.12669121 -17.25304842 267.1321975 C-26.90314785 267.13672945 -36.55324181 267.13737877 -46.20334196 267.13475883 C-51.97360246 267.13319651 -57.74385443 267.13300107 -63.51411438 267.13629532 C-68.93784245 267.13917521 -74.36154707 267.13719614 -79.7852726 267.13140106 C-81.78077976 267.1300741 -83.77628888 267.1304665 -85.77179527 267.13266373 C-88.48603343 267.13537772 -91.20019546 267.13199099 -93.91442871 267.12698364 C-94.71266509 267.12921436 -95.51090146 267.13144509 -96.33332682 267.13374341 C-101.77169991 267.11415004 -101.77169991 267.11415004 -104 266 C-103.45627996 260.93846068 -101.02856717 257.2548803 -98.4375 253 C-97.9835083 252.24162842 -97.5295166 251.48325684 -97.06176758 250.7019043 C-93.84322528 245.34068234 -90.55718747 240.02122523 -87.26171875 234.70703125 C-83.68666454 228.8895181 -80.25599856 222.98444391 -76.79345703 217.09960938 C-73.7697903 211.96864556 -70.70971416 206.8685811 -67.5625 201.8125 C-64.63978644 197.10779442 -61.92544198 192.32690526 -59.32421875 187.4375 C-57.95524246 184.91761444 -56.47543886 182.45906476 -55 180 C-64.9 179.505 -64.9 179.505 -75 179 C-75 173.58940886 -74.36512153 172.42415655 -71.515625 168.06640625 C-70.77394147 166.90994505 -70.03375486 165.7525227 -69.29492188 164.59423828 C-68.91295654 164.00072571 -68.53099121 163.40721313 -68.13745117 162.79571533 C-66.32610541 159.93611007 -64.62303693 157.01590299 -62.921875 154.08984375 C-62.58381836 153.5109993 -62.24576172 152.93215485 -61.89746094 152.33576965 C-61.2032772 151.14690436 -60.50967923 149.95769685 -59.81665039 148.76815796 C-54.43835632 139.53756381 -49.02552255 130.3309675 -43.5 121.1875 C-38.48670754 112.88678869 -33.70944704 104.47700466 -29 96 C-37.58 96 -46.16 96 -55 96 C-54.06888737 91.34443683 -53.29566411 89.51549072 -50.8125 85.6875 C-46.83120473 79.42852484 -43.0898169 73.04518942 -39.375 66.625 C-33.9751121 57.31237282 -28.45160916 48.0849663 -22.79443359 38.92626953 C-19.50714834 33.57940943 -16.41485324 28.16513545 -13.4375 22.63989258 C-11.29619902 18.70750679 -9.03168602 14.85210572 -6.75 11 C-6.316875 10.26394531 -5.88375 9.52789062 -5.4375 8.76953125 C-3.68249825 5.79577828 -1.91633766 2.87450649 0 0 Z " fill="#E77F31" transform="translate(156,21)"/>
<path d="M0 0 C1.55471512 -0.01598991 1.55471512 -0.01598991 3.14083862 -0.03230286 C6.55887615 -0.05796591 9.97434745 -0.03277867 13.39233398 -0.00463867 C15.77074988 -0.00681491 18.1491647 -0.01121573 20.52757263 -0.01774597 C25.50846742 -0.02355003 30.48848094 -0.00457805 35.46923828 0.03222656 C41.85436275 0.07772989 48.23778092 0.06511399 54.62294102 0.03441906 C59.53266735 0.01662654 64.44199376 0.02785578 69.35169792 0.04805946 C71.70602568 0.05457716 74.06039372 0.05245409 76.41470528 0.0415554 C79.70448762 0.03102743 82.99172517 0.05912451 86.28125 0.09765625 C87.25437637 0.08708191 88.22750275 0.07650757 89.2301178 0.06561279 C95.68199485 0.19747782 95.68199485 0.19747782 98.26855183 2.20095062 C99.62692261 3.80192566 99.62692261 3.80192566 101.57592773 6.88989258 C102.06391846 7.6157959 102.55190918 8.34169922 103.0546875 9.08959961 C103.65494751 10.10836182 103.65494751 10.10836182 104.26733398 11.14770508 C104.96221924 12.3170459 104.96221924 12.3170459 105.67114258 13.51000977 C106.15534668 14.33662109 106.63955078 15.16323242 107.13842773 16.01489258 C108.20464442 17.81448407 109.27105598 19.61396012 110.33764648 21.41333008 C110.87695801 22.32695312 111.41626953 23.24057617 111.97192383 24.18188477 C113.96009923 27.53848165 115.97454298 30.87878043 117.99047852 34.21875 C123.59949957 43.51742298 129.09495971 52.87961497 134.54467773 62.27246094 C137.14674465 66.75188989 139.75936307 71.22064482 142.46264648 75.63989258 C142.88843994 76.33687256 143.3142334 77.03385254 143.75292969 77.75195312 C144.52546081 79.00969739 145.3035466 80.26405487 146.08837891 81.51416016 C147.75804859 84.23135504 148.57592773 85.62941117 148.57592773 88.88989258 C145.40058622 90.47756334 141.97709389 90.02662013 138.49035645 90.01687622 C137.22196686 90.01921621 137.22196686 90.01921621 135.92795324 90.02160347 C133.07817211 90.02561046 130.2284437 90.02242497 127.37866211 90.01928711 C125.34222889 90.02064128 123.30579591 90.02242131 121.2693634 90.02459717 C115.72612982 90.02916959 110.18291478 90.02738272 104.63968086 90.02421808 C98.84967116 90.0216935 93.05966308 90.0240323 87.26965332 90.02560425 C77.5447562 90.02742565 67.81986667 90.02502039 58.0949707 90.02026367 C46.83760072 90.01482111 35.58024885 90.01658379 24.32287931 90.02209008 C14.67277989 90.02662203 5.02268592 90.02727135 -4.62741423 90.02465141 C-10.39767472 90.02308909 -16.16792669 90.02289365 -21.93818665 90.0261879 C-27.36191471 90.02906779 -32.78561934 90.02708872 -38.20934486 90.02129364 C-40.20485203 90.01996668 -42.20036115 90.02035908 -44.19586754 90.0225563 C-46.9101057 90.0252703 -49.62426773 90.02188357 -52.33850098 90.01687622 C-53.13673735 90.01910694 -53.93497373 90.02133766 -54.75739908 90.02363598 C-60.19577218 90.00404262 -60.19577218 90.00404262 -62.42407227 88.88989258 C-61.88035222 83.82835325 -59.45263943 80.14477288 -56.86157227 75.88989258 C-56.40758057 75.131521 -55.95358887 74.37314941 -55.48583984 73.59179688 C-52.26729755 68.23057492 -48.98125973 62.91111781 -45.68579102 57.59692383 C-42.11073681 51.77941068 -38.68007083 45.87433649 -35.2175293 39.98950195 C-31.59716953 33.84598926 -27.89624335 27.76507262 -24.12329102 21.71411133 C-21.92919074 18.06736535 -19.95848158 14.32142407 -18.04125977 10.52270508 C-12.99316332 2.30430651 -9.84232693 -0.15953496 0 0 Z " fill="#DE6425" transform="translate(114.424072265625,198.110107421875)"/>
<path d="M0 0 C2.39160846 0.36965798 3.65524507 0.58996803 5.24169922 2.47680664 C5.59248535 3.11481201 5.94327148 3.75281738 6.3046875 4.41015625 C6.92162476 5.50577881 6.92162476 5.50577881 7.55102539 6.62353516 C8.20639282 7.83082275 8.20639282 7.83082275 8.875 9.0625 C9.84933599 10.80129957 10.82464342 12.53955506 11.80078125 14.27734375 C12.57542725 15.66928955 12.57542725 15.66928955 13.36572266 17.08935547 C16.20067882 22.13840647 19.13615239 27.1285545 22.0625 32.125 C23.26052179 34.17702196 24.4584402 36.22910429 25.65625 38.28125 C30.08777474 45.86385893 34.53677727 53.43601201 39 61 C39.52513184 61.89025879 40.05026367 62.78051758 40.59130859 63.69775391 C42.31027094 66.61135809 44.02998021 69.52451996 45.75 72.4375 C46.28117432 73.33742676 46.81234863 74.23735352 47.35961914 75.16455078 C47.87516357 76.03708496 48.39070801 76.90961914 48.921875 77.80859375 C49.42525391 78.66308105 49.92863281 79.51756836 50.44726562 80.39794922 C51.52329437 82.20114331 52.61702644 83.99384581 53.72460938 85.77783203 C54.27439453 86.66712402 54.82417969 87.55641602 55.390625 88.47265625 C55.89110352 89.2706665 56.39158203 90.06867676 56.90722656 90.89086914 C58 93 58 93 58 96 C45.625 96.495 45.625 96.495 33 97 C32.67 97.66 32.34 98.32 32 99 C31.34 97.68 30.68 96.36 30 95 C11.19 95 -7.62 95 -27 95 C-27.66 97.31 -28.32 99.62 -29 102 C-29.66 102 -30.32 102 -31 102 C-30.34 100.02 -29.68 98.04 -29 96 C-37.58 96 -46.16 96 -55 96 C-54.06888737 91.34443683 -53.29566411 89.51549072 -50.8125 85.6875 C-46.83120473 79.42852484 -43.0898169 73.04518942 -39.375 66.625 C-33.9751121 57.31237282 -28.45160916 48.0849663 -22.79443359 38.92626953 C-19.50714834 33.57940943 -16.41485324 28.16513545 -13.4375 22.63989258 C-11.29619902 18.70750679 -9.03168602 14.85210572 -6.75 11 C-6.316875 10.26394531 -5.88375 9.52789062 -5.4375 8.76953125 C-3.68249825 5.79577828 -1.91633766 2.87450649 0 0 Z " fill="#F0A24E" transform="translate(156,21)"/>
<path d="M0 0 C7.37995214 -0.0926611 14.75977896 -0.16374461 22.14019489 -0.20724869 C25.56722363 -0.22812821 28.99385454 -0.25645083 32.4206543 -0.30175781 C36.35981492 -0.35351325 40.29881418 -0.37294237 44.23828125 -0.390625 C46.0852636 -0.42159271 46.0852636 -0.42159271 47.96955872 -0.45318604 C49.11051498 -0.45348816 50.25147125 -0.45379028 51.42700195 -0.45410156 C52.93590752 -0.46742523 52.93590752 -0.46742523 54.47529602 -0.48101807 C57 0 57 0 58.84831238 1.77838135 C60 4 60 4 60 8 C60.66 8 61.32 8 62 8 C62.495 10.475 62.495 10.475 63 13 C40.23 13 17.46 13 -6 13 C-5.34 11.02 -4.68 9.04 -4 7 C-3.34 7 -2.68 7 -2 7 C-1.34 4.69 -0.68 2.38 0 0 Z " fill="#E27229" transform="translate(129,116)"/>
<path d="M0 0 C0.33 0.99 0.66 1.98 1 3 C4.15119466 4.57559733 7.5258109 4.13304309 10.98513794 4.12025452 C12.23726824 4.12153615 12.23726824 4.12153615 13.51469409 4.12284368 C16.3276886 4.12449824 19.14062422 4.11897749 21.95361328 4.11352539 C23.96373493 4.11324349 25.97385668 4.11340131 27.98397827 4.1139679 C33.4547687 4.11425575 38.92553737 4.10836096 44.39632273 4.10139394 C50.10852353 4.0951584 55.82072479 4.09455644 61.53292847 4.09336853 C72.3559863 4.09025581 83.17903408 4.08204321 94.00208747 4.07201904 C106.32112424 4.06085608 118.64016149 4.05534699 130.95920205 4.05032361 C156.30614028 4.03986055 181.65306958 4.02226225 207 4 C207.33 3.34 207.66 2.68 208 2 C208.33 3.32 208.66 4.64 209 6 C205.82465848 7.58767076 202.40116616 7.13672755 198.91442871 7.12698364 C197.64603913 7.12932363 197.64603913 7.12932363 196.35202551 7.13171089 C193.50224437 7.13571788 190.65251596 7.13253239 187.80273438 7.12939453 C185.76630115 7.1307487 183.72986818 7.13252873 181.69343567 7.13470459 C176.15020209 7.13927701 170.60698705 7.13749014 165.06375313 7.1343255 C159.27374342 7.13180092 153.48373535 7.13413972 147.69372559 7.13571167 C137.96882847 7.13753308 128.24393894 7.13512781 118.51904297 7.13037109 C107.26167299 7.12492853 96.00432112 7.12669121 84.74695158 7.1321975 C75.09685215 7.13672945 65.44675819 7.13737877 55.79665804 7.13475883 C50.02639754 7.13319651 44.25614557 7.13300107 38.48588562 7.13629532 C33.06215755 7.13917521 27.63845293 7.13719614 22.2147274 7.13140106 C20.21922024 7.1300741 18.22371112 7.1304665 16.22820473 7.13266373 C13.51396657 7.13537772 10.79980454 7.13199099 8.08557129 7.12698364 C7.28733491 7.12921436 6.48909854 7.13144509 5.66667318 7.13374341 C0.22830009 7.11415004 0.22830009 7.11415004 -2 6 C-1.125 1.125 -1.125 1.125 0 0 Z " fill="#F1CCB9" transform="translate(54,281)"/>
<path d="M0 0 C0.33 0 0.66 0 1 0 C0.67 2.31 0.34 4.62 0 7 C-0.99 7.33 -1.98 7.66 -3 8 C-3 8.99 -3 9.98 -3 11 C-3.66 11 -4.32 11 -5 11 C-5.33 12.98 -5.66 14.96 -6 17 C-6.99 17 -7.98 17 -9 17 C-7.51463956 12.97683781 -5.60123107 9.38707358 -3.4375 5.6875 C-2.81746094 4.61886719 -2.19742188 3.55023438 -1.55859375 2.44921875 C-1.04425781 1.64097656 -0.52992187 0.83273438 0 0 Z " fill="#EDB694" transform="translate(87,225)"/>
<path d="M0 0 C0.33 0.99 0.66 1.98 1 3 C3.83269666 4.41634833 6.47466438 4.3463005 9.625 4.5625 C10.81351563 4.64628906 12.00203125 4.73007812 13.2265625 4.81640625 C14.59941406 4.90728516 14.59941406 4.90728516 16 5 C16 5.33 16 5.66 16 6 C10.06 6 4.12 6 -2 6 C-1 1 -1 1 0 0 Z " fill="#E8A180" transform="translate(54,281)"/>
<path d="M0 0 C1 2 1 2 0.1875 5 C-1 8 -1 8 -3 10 C-3.33 10.66 -3.66 11.32 -4 12 C-4.66 12 -5.32 12 -6 12 C-4.43358249 7.69235185 -2.31663844 3.93828536 0 0 Z " fill="#F6D8B3" transform="translate(142,45)"/>
<path d="M0 0 C0.6875 1.8125 0.6875 1.8125 1 4 C-0.375 5.5625 -0.375 5.5625 -2 7 C-2.33 7.99 -2.66 8.98 -3 10 C-3.66 10 -4.32 10 -5 10 C-3.84414715 6.08788267 -2.64465038 3.1254959 0 0 Z " fill="#F3C7A4" transform="translate(116,137)"/>
<path d="M0 0 C1 2 1 2 0.6875 4.0625 C0 6 0 6 -2 7 C-2.33 7.99 -2.66 8.98 -3 10 C-3.66 10 -4.32 10 -5 10 C-3.84414715 6.08788267 -2.64465038 3.1254959 0 0 Z " fill="#EECEB1" transform="translate(94,174)"/>
<path d="M0 0 C2.61500768 2.36595933 4.38999603 4.86049226 6 8 C5.67 8.66 5.34 9.32 5 10 C4.67 9.01 4.34 8.02 4 7 C3.01 7 2.02 7 1 7 C0.67 4.69 0.34 2.38 0 0 Z " fill="#F4D8B7" transform="translate(198,89)"/>
<path d="M0 0 C3.10551666 3.10551666 3.81323934 4.89198233 5 9 C4.01 9 3.02 9 2 9 C1.34 6.03 0.68 3.06 0 0 Z " fill="#F7D9B2" transform="translate(170,41)"/>
<path d="M0 0 C0.33 0 0.66 0 1 0 C0.67 2.31 0.34 4.62 0 7 C-0.99 7.33 -1.98 7.66 -3 8 C-2.37240135 5.07120629 -1.41377341 2.63904371 0 0 Z " fill="#EDAD8A" transform="translate(87,225)"/>
</svg>
